<?xml version="1.0" encoding="UTF-8"?>
<!-- Generator: Adobe Illustrator 21.0.0, SVG Export Plug-In . SVG Version: 6.00 Build 0)  -->
<svg version="1.1" id="Vrstva_1" xmlns="http://www.w3.org/2000/svg" xmlns:xlink="http://www.w3.org/1999/xlink" x="0px" y="0px" viewBox="0 0 1417.3 1417.3" style="enable-background:new 0 0 1417.3 1417.3;" xml:space="preserve">
<style type="text/css">
	.st0{fill:#E42313;}
	.st1{fill:#FFFFFF;}
</style>
<g>
	<circle class="st0" cx="714.9" cy="703.9" r="644.4"/>
	<g>
		<path class="st1" d="M707.4,53.7c-361.9,0-657.9,294.7-657.9,656.6c0,360.4,296,656.6,657.9,656.6    c363.6,0,659.5-296.3,659.5-656.6C1366.9,348.4,1070.9,53.7,707.4,53.7z M707.4,1326.9c-339.8,0-617.7-278.2-617.7-616.6    c0-339.9,277.9-616.6,617.7-616.6c341.4,0,619.3,276.7,619.3,616.6C1326.7,1048.7,1048.8,1326.9,707.4,1326.9z"/>
		<polygon class="st0" points="1099.2,1118 1100.2,1117 1099.2,1115 1099.2,1118   "/>
		<path class="st0" d="M306.2,784.9C302.2,760,306.2,784.9,306.2,784.9L306.2,784.9z"/>
		<g>
			<path class="st1" d="M992.3,286.7c3,0,6-2,8-5c3-4,3-7,2-11c-2-3-5-5.9-10-9.9l-18-10.9l-13,20.9l18,12     C984.3,285.7,988.3,286.7,992.3,286.7z"/>
			<polygon class="st1" points="795.6,185.3 767.6,225.1 806.5,231    "/>
			<polygon class="st1" points="897.4,1198.6 933.4,1183.6 900.4,1153.8    "/>
			<path class="st1" d="M795.6,1229.4c-3-1-8-2-13-1l-27,2l2,22.9l24-2c7-1,12-2,15-4c3-2,4-5,4-8.9     C799.6,1234.4,798.6,1231.4,795.6,1229.4z"/>
			<polygon class="st1" points="463,287.7 423,263.9 427.1,308.6    "/>
			<path class="st1" d="M517.9,1149.8c-9-4-17-5-24-2c-7,3-13,9-17,18.9c-5,9.9-6,17.9-3,25.8c2,7,8,12.9,17,16.9c9,4,17,5,23.9,2     c7-3,12-8.9,17-18.9c4-9.9,5-17.9,2-25.8C531.9,1159.8,525.9,1153.8,517.9,1149.8z"/>
			<path class="st1" d="M790.6,1205.5c3-2,4-5,3-7.9c0-4-1-6-4-7c-2-2-6-2-11-2l-26,3l2,18.9l24-2     C784.6,1208.5,788.6,1206.5,790.6,1205.5z"/>
			<path class="st1" d="M1098.2,383.2c4,1,7,0,10-3c3-3,4-6,3-9c0-4-3-7.9-7-12.9l-17-18.9l-17.9,15.9l16.9,18.9     C1090.2,379.2,1094.2,382.2,1098.2,383.2z"/>
			<polygon class="st1" points="1196,771.3 1189.1,812.1 1235,799.2    "/>
			<path class="st1" d="M700.9,313.6v793.5c218.7-1,405.2-179,405.2-396.8C1106.2,491.6,919.6,313.6,700.9,313.6z M912.4,662.6     l-27,85.5l-29-84.5l-90.9-1l71.9-55.7l-28-88.5l73.9,53.7c0,1,73.9-53.7,73.9-53.7l-29,88.5l74.9,54.7L912.4,662.6z"/>
			<path class="st1" d="M707.4,103.5C373,103.5,99.5,375.9,99.5,710.3c0,333,273.5,606.8,607.9,606.8c336,0,609.5-273.8,609.5-606.8     C1316.9,375.9,1043.4,103.5,707.4,103.5z M1256,612.9l-41,6l8,48.7l41-5l5,32.8l-104.9,12.9l-5-31.8l43-5l-7-50.7l-43.9,6     l-4-28.8L1251,584L1256,612.9z M1122.1,347.4c15,16.9,28.9,30.8,8,49.7c-4,4-9,6-14,6c-6,1-12-1-19-4c3,5,6,11.9,5,15.9     c-1,3-3,11-8,15.9l-6,6c-6,6-9,10.9-8,13.9l-2,3l-24-25.9c2-4,5-7.9,10-11.9c4-5,7-7.9,8-8.9c3-3,4-7,3-10c0-3-2-7-6-10.9     l-15-16.9l-29,26.9l-22-24.9l77.9-69.6L1122.1,347.4z M959.4,215.1l47.9,30.8c12,8,20,16.9,24,25.9c4,9,3,17.9-3,25.9     c-6,9.9-14,14.9-23,15.9c-10,1-21-3-33-10.9l-22-13.9l-20,30.8l-26-15.9L959.4,215.1z M782.6,160.5l35.9,6.9l35,113.4l-34-5     l-6-23.9l-58.9-9.9l-14,18.9l-31.9-5L782.6,160.5z M678.7,152.5l9,106.4h-29.9l-9-105.4L678.7,152.5z M522.9,181.3     c17,25.8,34,49.7,54.9,73.6l6-89.5l29-8.9l-12,113.3l-35,11L490,190.3L522.9,181.3z M430,231l98.9,64.6l-29,17.9l-20-11.9     L430,331.5l2,21.9l-26.9,16.9l-8-120.3L430,231z M287.2,346.4l59.9,54.7l34.9-37.8l16.9,14.9l-57.9,63.6l-77.9-69.6L287.2,346.4z      M260.3,848.5c-5,9.9-14,15.9-27,17.9l-3-30.8c6-1,10-4,12-7.9c3-5,4-11,3-18.9c-1-6-3-10.9-5-14.9c-2-3-5-5-8-4c-2,0-3,0-5,1     c-1,1-2,3-2,4c-1,3-2,8.9-3,18.9c-1,9-2,16.9-3,23.9c-2,9-5,16.9-10,21.9c-4,6-10,8.9-16,9.9c-10,1-19-3-26-10.9     c-7-8.9-12-20.9-13-36.8c-2-14.9-1-27.8,4-36.8c6-9.9,13-15.9,24-16.9l4,30.8c-5,1-8,4-10,7c-2,4-3,8.9-2,15.9c1,5,2,9.9,4,12.9     c3,3,5,4,8,4c5-1,8-8.9,10-24.8c1-3,1-6,1-7c0-1,0-1,0-2c3-15.9,5-26.8,7-30.8c2-5,5-7.9,9-10.9c3-3,7-4,12-4.9     c10-1,19,3,26,11.9c7,9,12,21.9,14,39.8C267.2,826.7,265.3,839.6,260.3,848.5z M263.3,646.7l-58.9,39.8l50.9,5l-4,31.8     l-106.9-13.9l5-30.8l43,5.9l-36.9-47.7l6-37.8l37.9,53.7l69.9-43.8L263.3,646.7z M277.2,543.3c-10,6-20.9,6-31.9,2l14-28.8     c5,2,10,2,15,0c4-3,8-7.9,12-14.9c3-6,4-11,4-14.9c1-5-1-7-4-9c-1,0-3,0-4,0c-2,0-3,1-5,2c-2,2-6,7-12,13.9     c-6,7.9-12,13.9-16,18.9c-7,8-14,12.9-21,14.9c-6,3-12,2-18,0c-9-4-14-11.9-15-21.9c-2-10.9,1-23.9,9-37.8     c7-14.9,15-24.8,24-29.8c10-6,20-7,29-3l-14,27.8c-4-1-9,0-12,2c-4,2-7,7-10,12.9c-3,4-4,9-4,12.9c0,3,2,6,4,7c4,2,12-4,23-16.9     c2-2,3-4,4-5l1-1c11-12.9,19-20.9,23-23.9c4-3,9-4,13-5c4,0,9,0,13,2c9,4,14,11.9,15,22.9c1,11.9-3,24.9-11,41.8     C295.2,527.4,286.3,538.3,277.2,543.3z M422,1127l-13,15.9l-39.9-32.8l-25,30.8l-26-20.9l67.9-81.5l67.9,55.7l-13,14.9l-42-33.8     l-16.9,18.9L422,1127z M561.9,1206.5c-7,15.9-18,25.9-32,29.8c-14,4-30,2-47.9-6.9c-18-7.9-29.9-18.9-35.9-32.8     c-7-13.9-6-27.9,1-43.7c7-14.9,17-24.9,32-28.8c14-5,30-3,47,6c18,7.9,30,18.9,36.9,32.8C568.9,1176.7,568.9,1191.6,561.9,1206.5     z M695.7,1193.6l-40.9-5l-10,82.5l-31-4l10-82.5l-40-5.9l3-20.9l111.9,14.9L695.7,1193.6z M827.5,1252.3c-3,5-7,8.9-12,11.9     c-4,2-8,4-14,5c-5,1-13,2-24,3l-47.9,5l-9-104.4l58.9-5c15-1,24.9,0,32,4c7,3,11,9.9,12,18.9c0,5-1,9.9-3,13.9c-3,4-7,7-13,9.9     c7,1,12,3,16,7c5,3,7,7.9,7,13.9C831.5,1241.3,830.5,1247.3,827.5,1252.3z M971.4,1215.5l-20-16.9l-55.9,23.9v21.9l-28,13.9     l7-117.3l32-15.9l93.9,73.6L971.4,1215.5z M1032.2,1171.7l-65.9-81.6l25-19.9l50.9,64.6l43.9-35.8l14,17.9L1032.2,1171.7z      M707.7,1118c-224.7,0-408.5-184-408.5-407.7c0-224.7,183.8-407.7,408.5-407.7c225.7,0,409.5,183,409.5,407.7     C1117.1,934,933.4,1118,707.7,1118z M1128.1,561.2l16-17.9l-26-55.7h-23l-14-26.8l120.8,4l14,33.8l-70.9,93.5L1128.1,561.2z      M1253,823l-112.8,34.8l4-32.8l22-6l11-62.6l-17-13.9l4-27.8l93.9,69.6L1253,823z"/>
			<polygon class="st1" points="1190.1,488.6 1140.1,489.6 1158.1,526.4    "/>
		</g>
	</g>
</g>
</svg>