<?xml version="1.0" encoding="utf-8"?>
<!-- Generator: Adobe Illustrator 16.0.4, SVG Export Plug-In . SVG Version: 6.00 Build 0)  -->
<!DOCTYPE svg PUBLIC "-//W3C//DTD SVG 1.1//EN" "http://www.w3.org/Graphics/SVG/1.1/DTD/svg11.dtd">
<svg version="1.1" id="Layer_1" xmlns="http://www.w3.org/2000/svg" xmlns:xlink="http://www.w3.org/1999/xlink" x="0px" y="0px"
	 width="128px" height="128px" viewBox="0 0 128 128" enable-background="new 0 0 128 128" xml:space="preserve">
<g>
	<g>
		<path fill="#FFFFFF" d="M64,126.167C29.721,126.167,1.833,98.279,1.833,64S29.721,1.833,64,1.833S126.167,29.721,126.167,64
			S98.279,126.167,64,126.167z"/>
		<path d="M64,2.833c33.729,0,61.167,27.438,61.167,61.167S97.729,125.167,64,125.167S2.833,97.729,2.833,64S30.271,2.833,64,2.833
			 M64,0.833C29.114,0.833,0.833,29.114,0.833,64c0,34.887,28.281,63.167,63.167,63.167c34.888,0,63.167-28.28,63.167-63.167
			C127.167,29.114,98.888,0.833,64,0.833L64,0.833z"/>
	</g>
	<g>
		<path d="M82.524,30.331c0.025-0.063,0.771,5.738,0.833,5.728c0.873-0.162,3.815-1.291,4.374-1.63
			c0.048-0.028-1.51,3.914-4.015,6.028c-0.068,0.059,0.207,3.229,0.239,4.725c0.001,0.071-2.634-0.971-3.878-1.671
			c-1.811,1.168-6.085,2.487-6.082,2.564l0.107,4.277c0.002,0.044,6.386-0.716,6.321-0.663c-5.237,4.357-10.048,6.339-16.187,6.371
			c-0.126,0,2.672-1.73,3.192-2.857c-0.452-0.447-2.512-2.176-2.99-2.749c0.062-0.112,3.779,0.225,5.536,0.219
			c1.213-1.262,2.366-2.587,3.357-4.034c1.173-1.711,2.38-3.409,3.296-5.277c0.044-0.09-3.163-2.691-4.344-4.244
			c-0.052-0.068,4.359,0.125,6.473-0.073C79.032,37.016,81.617,32.487,82.524,30.331L82.524,30.331z M68.97,9.372
			c-1.235,0.817-4.495,3.639-4.362,3.683c1.641,0.562,3.355,1.12,4.945,1.971c0.051,0.025,0.085,0.072,0.142,0.159
			c-2.399,0.171-4.691,0.097-7.14,0.602c-1.089,1.405-2.166,4.021-2.537,5.801c1.118,1.813,2.22,3.608,3.446,5.315
			c0.169,0.068,5.53-1.387,8.109-2.103c0,0-4.795,6.435-4.767,6.468c0,0,5.104,5.623,5.043,5.615
			c-2.601-0.375-7.828-1.646-7.878-1.562l-3.545,5.951c-0.428,2.022-0.758,4.164-0.989,6.33c0.079,0.155,4.691,2.623,4.691,2.623
			c0.062,0.034-3.109,0.443-4.645,0.41c-0.139-0.002-0.076,3.376,0.195,4.887c0.013,0.073-0.772,0.049-1.09-0.019
			c-0.907-0.837-4.143-5.103-4.25-5.112c-2.621-0.258-5.242-0.669-7.711-1.622c-0.065-0.024,5.493-2.268,5.498-2.284
			c0.035-0.101-1.657-3.425-2.13-5.06c-1.462-0.867-4.378-2.588-4.435-2.512c-1.037,1.452-3.1,4.436-3.112,4.417
			c-0.296-0.445-0.481-0.893-0.646-1.303c0.077-1.885,0.508-5.771,0.401-5.854c-0.799-0.605-2.478-2.274-2.359-2.412
			c1.218-0.452,2.434-0.784,3.689-1.137c0.562-1.414,2.426-4.728,2.595-5.046c-0.015-0.204-1.626-1.99-2.152-2.81
			c-0.089-0.139-3.864,3.44-3.857,3.401c1.115-7.231,5.784-12.324,8.396-14.058c0.044-0.03-1.008,3.022-1.272,4.582
			c-0.016,0.092,2.395,0.112,3.5,0.186c0.014,0.097-3.428,2.65-4.23,3.324c-0.133,2.534-0.21,5.962,0.27,9.495
			c0.124,0.13,3.508-0.009,5.955-0.355c1.358-0.762,5.53-2.393,6.082-2.574c0.091-0.028,0.568-4.873,1.103-7.182
			c-0.21-0.3-3.155-4.483-3.155-4.483c-0.067-0.101-3.69,0.975-5.355,1.549c-0.074,0.026,2.629-3.231,3.941-4.021
			c0.119-0.271-1.333-3.706-1.333-3.706c-0.021-0.073,4.089,0.312,6.021,0.866C62.692,10.385,69.029,9.334,68.97,9.372z
			 M48.129,35.763c-0.104,0.123-0.241,0.259-0.195,0.433c0.473,1.785,1.24,3.47,2.133,5.164l0.72,0.571
			c1.324,1.004,2.644,2.02,4.02,2.954c0.184,0.125,0.425,0.127,0.608,0.004c1.706-1.119,3.42-2.24,4.93-3.66
			c-0.571-2.395-1.11-4.835-1.214-7.328c-0.004-0.095-0.055-0.215-0.118-0.237l-6.259-2.21
			C51.086,32.789,49.493,34.163,48.129,35.763L48.129,35.763z"/>
		<path d="M78.291,13.393c0.033-0.047,1.837,3.639,2.369,5.512c3.724,2.531,5.667,4.901,5.734,4.968
			c-0.095,0.081-4.416-0.174-4.403-0.104c0.298,1.944,0.56,3.915,0.616,5.899c-0.024,0-0.124,0.007-0.129,0
			c0,0-4.373-6.227-4.562-6.107c-2.069,0.157-4.02,0.577-6.014,1.035c0.015-0.003-0.036-0.016-0.072-0.06
			c1.119-1.35,2.275-2.651,3.272-4.077c0.084-0.118-5.327-5.316-5.275-5.313c2.387,0.136,4.648,0.927,6.884,1.693
			C76.814,16.875,78.249,13.451,78.291,13.393L78.291,13.393z M48.399,83.044c0.558,0.076,1.123,0.134,1.687,0.125l1.675-0.111
			l2.868,7.132c0.047,0.118,0.2,0,0.229-0.08l2.55-7.073c1.098,0.149,2.193,0.131,3.275-0.017c0.076-0.012,0.167,0.005,0.189,0.082
			c0.023,0.082-0.022,0.166-0.104,0.188c-0.017,0.004-0.033,0.006-0.049,0.005c-0.276-0.018-0.534,0.189-0.523,0.462
			c0.121,3.062,0.393,6.117,0.663,9.177c0.22,0.256,0.542,0.337,0.821,0.365c0.051,0.125,0.025,0.248-0.045,0.245
			c-0.98-0.048-1.976-0.124-2.969-0.079c-0.395,0.019-0.791,0.053-1.18,0.071c-0.087,0.004-0.119-0.233-0.016-0.242
			c0.201-0.015,0.413-0.081,0.612-0.166c0.34-0.143,0.395-0.53,0.38-0.862c-0.086-2.185-0.295-4.36-0.469-6.538
			c-0.004-0.05-0.147-0.105-0.17-0.039l-1.785,5.036L55.1,93.452c-0.036,0.105-0.243,0.091-0.381,0.094l-0.917-0.001
			c-0.081-0.003-0.146-0.066-0.174-0.144c-0.973-2.586-2.048-5.131-3.066-7.699c-0.023-0.058-0.142-0.082-0.148-0.03
			c-0.033,0.236-0.065,0.48-0.064,0.727c0.01,2.137-0.214,4.27-0.102,6.375c0.145,0.288,0.399,0.447,0.684,0.459
			c0.148,0.006,0.312,0.044,0.389,0.165c0.031,0.049-0.028,0.157-0.109,0.148c-1.155-0.112-2.318-0.115-3.476-0.006
			c-0.071,0.006-0.096-0.214-0.023-0.225c0.182-0.025,0.359-0.101,0.536-0.166c0.144-0.054,0.312-0.189,0.326-0.378
			c0.21-2.973,0.429-5.988,0.472-9.014c0.002-0.171-0.127-0.313-0.33-0.375c-0.133,0.016-0.294-0.051-0.402-0.149
			C48.241,83.166,48.32,83.032,48.399,83.044L48.399,83.044z M33.97,83.064c0.059-0.009,0.124,0.017,0.145,0.052
			c0.042,0.073,0.016,0.167-0.058,0.208c-0.024,0.015-0.053,0.021-0.082,0.021c-0.254-0.005-0.496,0.143-0.578,0.381
			c-0.087,0.261-0.087,0.54-0.086,0.814c0.006,2.771-0.001,5.542,0.097,8.311c0.008,0.232,0.232,0.398,0.47,0.396
			c0.077,0,0.152,0.022,0.215,0.069c0.042,0.03,0.062,0.089,0.03,0.146c-0.015,0.026-0.056,0.09-0.097,0.087
			c-1.205-0.109-2.42-0.092-3.621,0.053c-0.059,0.008-0.154,0.017-0.227-0.04c-0.042-0.032-0.062-0.09-0.023-0.146
			c0.062-0.095,0.214-0.105,0.309-0.134c0.311-0.095,0.489-0.361,0.49-0.661c0.005-1.247,0.049-2.492,0.024-3.741
			c0-0.034-0.062-0.093-0.1-0.093c-1.337,0.03-2.678,0.027-4.003,0.007c-0.095-0.002-0.118,0.14-0.117,0.234l0.02,3.66
			c-0.002,0.258,0.152,0.479,0.426,0.588c0.104,0.039,0.295,0.043,0.364,0.164c0.043,0.077-0.056,0.178-0.144,0.168
			c-1.246-0.131-2.504-0.168-3.703-0.061c-0.104,0.01-0.139-0.083-0.125-0.143c0.012-0.047,0.042-0.124,0.099-0.114
			c0.316,0.047,0.666-0.188,0.673-0.549c0.061-2.958,0.086-5.915-0.007-8.872c-0.011-0.301-0.293-0.522-0.593-0.488
			c-0.09,0.01-0.183-0.083-0.16-0.17c0.024-0.102,0.154-0.119,0.262-0.105c1.209,0.15,2.432,0.145,3.595-0.002
			c0.113-0.016,0.152,0.2,0.053,0.209c-0.174,0.014-0.417,0.062-0.575,0.234c-0.112,0.121-0.171,0.29-0.172,0.455l-0.029,3.189
			c-0.001,0.097,0.076,0.175,0.171,0.176l3.972-0.017c0.036,0,0.107-0.062,0.106-0.104l-0.04-3.44
			c-0.034-0.354-0.45-0.465-0.745-0.457c-0.052-0.13-0.025-0.256,0.044-0.248c0.735,0.079,1.492,0.12,2.247,0.101
			C32.99,83.189,33.482,83.14,33.97,83.064L33.97,83.064z M104.979,82.969c0.146-0.021,0.295-0.033,0.43-0.022
			c0.037,0.103,0.002,0.221-0.091,0.253c-0.138,0.049-0.311,0.043-0.439,0.144c-0.251,0.192-0.268,0.543-0.228,0.847
			c0.012,0.086-0.084,0.341-0.063,0.403c0.108,0.35,0.035,0.709,0.033,1.062l-0.004,7.774c-0.577,0.029-1.152-0.004-1.71-0.023
			l-4.803-7.079c-0.25-0.362-0.498-0.724-0.768-1.052c-0.035-0.041-0.123,0.002-0.124,0.053c-0.082,2.393,0.004,4.788,0.062,7.182
			c0.009,0.348,0.337,0.597,0.688,0.595c0.035,0,0.14,0.005,0.171,0.015c0.108,0.03,0.133,0.27,0.025,0.256
			c-1.002-0.122-2.055-0.098-3.082,0.021c-0.073,0.01-0.093-0.156-0.014-0.268c0.285,0.027,0.573-0.142,0.72-0.479l0.032-8.915
			c-0.084-0.352-0.442-0.514-0.709-0.521c-0.104-0.004-0.068-0.233,0.047-0.218c1.064,0.146,2.193,0.146,3.321,0.021l4.548,6.791
			c0.032,0.048,0.086,0.097,0.138,0.075c0.04-0.017,0.088-0.062,0.088-0.094c0.008-2.008,0.022-4.014-0.061-6.016
			c-0.105-0.392-0.517-0.61-0.862-0.535c-0.102,0.021-0.162-0.138-0.11-0.238c0.027-0.051,0.12-0.065,0.201-0.051
			C103.262,83.089,104.129,83.099,104.979,82.969L104.979,82.969z M111.617,82.794c1.439-0.141,2.893-0.019,4.29,0.357
			c0.061,0.017,0.142,0.064,0.141,0.128c-0.016,0.94,0.065,1.891,0.148,2.802c0.01,0.111-0.236,0.181-0.26,0.096
			c-0.096-0.386-0.308-0.788-0.592-1.125c-0.604-0.723-1.514-1.09-2.444-1.108c-0.772-0.019-1.61,0.029-2.191,0.593
			c-0.438,0.425-0.462,1.114-0.106,1.617c0.605,0.555,1.438,0.643,2.188,0.887c0.746,0.242,1.503,0.454,2.24,0.725
			c1.417,0.521,2.265,2.038,1.785,3.497c-0.475,1.446-1.911,2.157-3.33,2.369c-1.695,0.256-3.431,0.113-5.052-0.451
			c-0.122-0.042-0.094-0.227-0.095-0.335c-0.029-1.003-0.032-1.993-0.128-2.926c-0.013-0.119,0.109-0.163,0.184-0.133
			c0.099,0.04,0.147,0.139,0.166,0.24c0.278,1.476,1.608,2.481,3.093,2.443c0.882,0.089,1.833-0.021,2.463-0.691
			c0.443-0.476,0.436-1.217-0.021-1.682c-0.317-0.322-0.753-0.475-1.175-0.61c-1.273-0.407-2.614-0.657-3.764-1.382
			c-1.199-0.756-1.497-2.314-0.855-3.538c0.04-0.073,0.165-0.301,0.218-0.365C109.285,83.27,110.461,82.904,111.617,82.794
			L111.617,82.794z M16.679,81.904c1.297-0.135,2.608-0.027,3.866,0.316c0.036,0.011,0.087,0.06,0.087,0.093
			c-0.026,1.091,0.047,2.179,0.104,3.266c0.006,0.104-0.223,0.194-0.267,0.05c-0.118-0.39-0.302-0.855-0.642-1.223
			c-1.037-1.115-2.65-1.189-3.991-0.664c-0.292,0.114-0.562,0.282-0.794,0.489c-1.841,1.652-1.959,4.442-0.424,6.366
			c1.281,1.605,3.493,1.911,5.292,1.071c0.447-0.209,0.897-0.425,1.277-0.73c0.064-0.054,0.118,0.067,0.11,0.133l-0.187,1.548
			c-0.013,0.095-0.095,0.164-0.181,0.212c-1.517,0.882-3.291,1.193-5.026,0.906c-2.992-0.497-4.993-3.212-4.849-6.19
			c0.131-2.653,2.03-4.855,4.595-5.463C15.99,82.003,16.333,81.942,16.679,81.904L16.679,81.904z M64.035,83.099
			c2.001,0.099,4.021-0.04,6.036,0.13c1.604,0.138,3.077,1.327,3.039,3.035c0.152,1.669-1.103,3.061-2.707,3.351
			c-0.979,0.176-2.005,0.078-2.858-0.455c-0.105-0.066-0.134-0.208-0.045-0.33c0.823,0.165,1.704,0.109,2.438-0.343
			c0.937-0.807,1.047-2.141,0.495-3.198c-0.374-0.497-0.974-0.725-1.573-0.767c-0.534-0.033-1.071-0.042-1.606-0.027
			c-0.077,0.003-0.083,0.104-0.083,0.194c-0.018,2.695-0.084,5.419,0.051,8.097c0.248,0.334,0.604,0.464,0.954,0.49
			c0.126,0.012,0.162,0.263,0.076,0.257c-1.38-0.082-2.77-0.106-4.145,0.044c-0.087,0.011-0.191-0.131-0.118-0.193
			c0.114-0.093,0.266-0.18,0.428-0.204c0.312-0.224,0.351-0.6,0.355-0.938c0.027-1.553,0.012-3.104,0.017-4.656l-0.005-3.703
			c-0.023-0.319-0.381-0.545-0.658-0.498c-0.115,0.021-0.161-0.132-0.135-0.222C63.993,83.15,64.013,83.097,64.035,83.099z
			 M86.379,82.827c1.719-0.201,3.521,0.263,4.691,1.62c1.822,2.113,1.902,5.207,0.167,7.384c-1.843,2.017-4.905,2.613-7.188,0.99
			c-2.431-1.729-3.077-5.042-1.554-7.589C83.323,83.851,84.796,83.012,86.379,82.827L86.379,82.827z M86.24,84.286
			c-1.418,0.282-2.128,1.66-2.213,3.004c-0.021,0.302-0.013,0.604,0.022,0.906c0.154,1.421,0.646,2.866,1.859,3.721
			c1.241,0.726,2.844,0.354,3.605-0.866c0.888-1.419,0.704-3.143,0.159-4.656c-0.495-1.38-1.824-2.435-3.336-2.119
			C86.32,84.277,86.261,84.282,86.24,84.286L86.24,84.286z M81.302,98.379c0.093-0.011,0.194-0.033,0.278,0.018
			c0.056,0.033,0.043,0.178-0.03,0.166c-0.196-0.035-0.423,0.121-0.512,0.343c-0.088,1.929,0.001,3.862-0.116,5.812
			c-0.075,0.827-0.581,1.245-0.922,1.417c-1.202,0.608-2.588,0.562-3.881,0.308l-0.739-0.254c-0.895-0.407-1.396-1.349-1.367-2.332
			l-0.022-4.842c0-0.162-0.113-0.307-0.252-0.374v-0.187c0.536,0.05,1.076,0.084,1.613,0.043l0.857-0.117
			c-0.033,0.13-0.134,0.203-0.235,0.248c-0.13,0.057-0.238,0.19-0.235,0.327c0.035,1.902-0.171,3.807,0.012,5.706
			c0.157,0.74,0.897,1.141,1.616,1.048c0.459,0.043,0.932-0.024,1.294-0.271c0.307-0.205,0.475-0.549,0.529-0.9
			c0.103-0.657,0.104-1.325,0.087-1.989c-0.033-1.374,0.085-2.75-0.067-4.131C79.901,98.487,80.604,98.471,81.302,98.379
			L81.302,98.379z M89.701,98.387c0.071-0.002,0.148-0.053,0.215-0.037c0.045,0.011,0.097,0.064,0.097,0.103
			c0.003,0.6,0.039,1.197,0.106,1.792c0.008,0.062-0.04,0.136-0.086,0.143c-0.146,0.019-0.243-0.128-0.255-0.271
			c-0.026-0.326-0.276-0.599-0.604-0.606c-0.996-0.03-1.991,0.035-3.056,0.056c0.011,0-0.099,0.027-0.099,0.062l-0.013,2.098
			c0,0.051,0.078,0.113,0.116,0.109c0.652-0.059,1.318-0.025,1.971-0.129c0.257-0.039,0.441-0.277,0.441-0.537
			c0.001-0.124,0.271-0.15,0.258-0.073c-0.135,0.755-0.064,1.533,0.014,2.229c0.015,0.118-0.086,0.154-0.145,0.138
			c-0.104-0.028-0.158-0.128-0.177-0.229c-0.033-0.192-0.184-0.361-0.376-0.369l-2.022,0.028c-0.017,0-0.101,0.062-0.099,0.109
			c0.047,0.772,0.036,1.554,0.029,2.329c0,0.036,0.062,0.09,0.095,0.09c1.081,0.034,2.157-0.021,3.239-0.065
			c0.075-0.008,0.146-0.034,0.205-0.08c0.376-0.313,0.553-0.795,0.604-1.225c0.014-0.104,0.312-0.035,0.306,0.033
			c-0.062,0.778-0.12,1.515-0.128,2.252c0,0.09-0.087,0.131-0.175,0.133l-6.529,0.047c-0.081,0.001-0.102-0.111-0.078-0.197
			c0.173-0.039,0.338-0.108,0.487-0.204c0.072-0.046,0.096-0.15,0.096-0.207c0.01-2.279,0.113-4.55-0.008-6.817
			c-0.021-0.25-0.239-0.436-0.488-0.414c-0.005,0-0.009,0-0.014,0c-0.068,0.012-0.082-0.231-0.021-0.227
			c1.435,0.121,2.885,0.038,4.329-0.021L89.701,98.387L89.701,98.387z M45.732,98.465l6.32,0.01c0.062,0,0.151,0.038,0.149,0.084
			c-0.021,0.622,0.047,1.242,0.107,1.858c0.007,0.066-0.228,0.09-0.236,0.003c-0.033-0.331-0.218-0.689-0.586-0.839
			c-0.993-0.035-2.005-0.13-3.021-0.065c-0.073,0.007-0.259-0.024-0.26,0.065c-0.003,0.679,0.013,1.394-0.04,2.074
			c-0.004,0.064,0.088,0.104,0.135,0.104l1.968-0.001c0.239-0.012,0.423-0.222,0.447-0.459c0.011-0.101,0.091-0.194,0.159-0.184
			c0.126,0.019,0.104,0.154,0.099,0.238c-0.043,0.678-0.056,1.352,0,2.021c0.004,0.055-0.044,0.102-0.101,0.1
			c-0.062,0-0.132-0.041-0.137-0.101c-0.025-0.317-0.295-0.56-0.615-0.567c-0.611-0.015-1.224-0.018-1.836-0.008
			c-0.084,0.002-0.109,0.114-0.114,0.197c-0.042,0.777-0.038,1.557,0.015,2.333l0.97,0.057c0.835,0.023,1.671,0.003,2.505-0.057
			c0.137-0.01,0.243-0.115,0.32-0.228c0.208-0.298,0.262-0.66,0.357-0.983c0.129-0.021,0.215-0.011,0.325,0.026
			c-0.091,0.729-0.165,1.457-0.17,2.188c0,0.082-0.068,0.154-0.147,0.153c-2.188-0.029-4.375-0.089-6.549-0.074
			c-0.073,0-0.114-0.085-0.115-0.187c0.189-0.044,0.375-0.125,0.539-0.233c0.127-0.247,0.092-0.516,0.098-0.771
			c0.051-2.045,0.027-4.092-0.028-6.136c-0.008-0.28-0.295-0.438-0.53-0.42C45.691,98.552,45.724,98.465,45.732,98.465
			L45.732,98.465z M67.395,98.279c0.991-0.104,1.981,0.094,2.909,0.479c0.135,0.143,0.087,0.351,0.091,0.535
			c0.011,0.507,0.038,1.012,0.091,1.51c-0.125,0.023-0.244-0.035-0.279-0.143c-0.199-0.642-0.675-1.191-1.347-1.352l-0.84-0.154
			c-0.269,0.019-0.535,0.06-0.796,0.122c-1.394,0.329-2.183,1.675-2.181,3.056c0.005,1.35,0.603,2.791,2.02,3.152
			c0.685,0.175,1.411-0.006,1.868-0.477c0.104-0.227,0.167-0.47,0.187-0.718c0.029-0.418-0.003-0.836-0.096-1.245
			c-0.02-0.08-0.079-0.147-0.155-0.232c0.856,0.059,1.688,0.039,2.507-0.102c0.048-0.007,0.099,0,0.16,0.046
			c-0.219,0.151-0.418,0.293-0.604,0.382c-0.121,0.059-0.159,0.229-0.159,0.348l-0.003,2.776c-0.185,0.114-0.42,0.109-0.6-0.014
			c-0.12-0.193-0.159-0.403-0.213-0.601c-0.067,0-0.237-0.026-0.266,0c-0.88,0.826-2.12,1.066-3.288,0.836
			c-1.954-0.39-3.354-2.188-3.058-4.187c-0.129-1.805,1.185-3.271,2.84-3.782C66.578,98.398,66.983,98.319,67.395,98.279
			L67.395,98.279z M75.352,83.029c1.168,0.175,2.354,0.173,3.521-0.006c0.052-0.009,0.102,0.035,0.062,0.08
			c-0.104,0.117-0.232,0.215-0.345,0.332c-0.077,0.082-0.168,0.219-0.168,0.346l-0.001,8.945c0.001,0.137,0.137,0.256,0.268,0.354
			c-0.074,0.107-0.21,0.132-0.263,0.136c-0.926,0.065-1.852,0.116-2.777,0.15c-0.019-0.048-0.011-0.126,0.059-0.143
			c0.226-0.056,0.387-0.253,0.396-0.484c0.048-2.352-0.023-8.873-0.023-8.873c-0.015-0.313-0.27-0.562-0.583-0.571
			c-0.086-0.003-0.168-0.041-0.207-0.118C75.265,83.133,75.284,83.02,75.352,83.029L75.352,83.029z M37.781,98.38
			c0.983,0.146,2.042,0.132,3.067-0.017c0.062-0.008,0.125,0.087,0.107,0.146c-0.013,0.042-0.063,0.099-0.107,0.099
			c-0.179,0.004-0.354,0.078-0.516,0.183c-0.092,0.059-0.133,0.209-0.137,0.334c-0.052,2.043-0.018,4.09-0.015,6.084
			c0,0.131,0.146,0.138,0.272,0.14c0.863,0.011,1.764-0.035,2.664-0.074c0.471-0.111,0.743-0.541,0.853-0.981
			c0.031-0.12,0.062-0.255,0.161-0.312c0.068-0.038,0.15-0.019,0.255,0.031c-0.137,0.766-0.305,1.528-0.327,2.315
			c-0.001,0.044-0.086,0.087-0.146,0.085c-2.053-0.006-4.107-0.035-6.158,0.03c-0.069,0.003-0.116-0.163-0.038-0.18
			c0.156-0.034,0.325-0.129,0.458-0.225c0.071-0.051,0.093-0.151,0.095-0.208c0.07-2.319,0.041-4.631,0.029-6.888
			c-0.096-0.214-0.307-0.354-0.541-0.358C37.656,98.582,37.675,98.364,37.781,98.38L37.781,98.38z M39.409,83.066
			c0.991,0.176,2.036,0.164,3.044,0.018c1.021,3.253,2.126,6.423,3.27,9.576c0.129,0.354,0.485,0.562,0.825,0.632
			c0.031,0.14-0.014,0.26-0.108,0.25c-1.332-0.149-2.705-0.117-4.064-0.008c-0.088,0.008-0.141-0.198,0.008-0.236
			c0.185-0.045,0.453-0.105,0.646-0.299c0.097-0.097,0.139-0.232,0.122-0.367c-0.099-0.79-0.419-1.521-0.635-2.28
			c-0.027-0.089-0.111-0.146-0.204-0.146c-1.035,0.022-2.069-0.087-3.104,0.012c-0.08,0.011-0.147,0.064-0.175,0.142
			c-0.286,0.729-0.601,1.448-0.817,2.203c-0.069,0.24,0.051,0.506,0.288,0.589c0.171,0.061,0.341,0.13,0.491,0.192
			c0.059,0.026-0.015,0.203-0.088,0.192c-1.062-0.163-2.145-0.173-3.209-0.028c-0.087,0.014-0.141-0.092-0.125-0.134
			c0.04-0.114,0.145-0.165,0.248-0.185c0.134-0.021,0.256-0.093,0.339-0.198c0.501-0.679,0.706-1.504,1.029-2.271
			c0.959-2.273,1.94-4.543,2.795-6.859c0.057-0.167-0.032-0.352-0.2-0.407c-0.001-0.001-0.002-0.001-0.003-0.001
			c-0.159-0.053-0.312-0.124-0.421-0.221C39.311,83.189,39.351,83.057,39.409,83.066L39.409,83.066z M39.65,88.78
			c-0.038,0.1-0.059,0.273-0.002,0.272c0.766-0.012,1.519,0.041,2.301,0.029c0.019-0.002,0.132-0.083,0.119-0.123
			c-0.391-1.2-0.708-2.423-0.953-3.661c-0.014-0.074-0.157-0.104-0.184-0.021C40.562,86.453,40.098,87.614,39.65,88.78L39.65,88.78z
			 M56.532,98.447c0.743,0.135,1.527,0.156,2.315,0.015c0.106,0.188,0.174,0.407,0.243,0.623l2.261,6.713
			c0.07,0.19,0.238,0.337,0.412,0.444c0.051,0.034-0.021,0.119-0.028,0.119l-2.078,0.057c-0.251,0.033-0.497,0.129-0.761,0.15
			c-0.054,0.005-0.116-0.017-0.138-0.067c-0.026-0.069-0.006-0.151,0.058-0.162c0.225-0.026,0.434-0.14,0.625-0.352
			c-0.031-0.658-0.34-1.285-0.566-1.979c-0.847-0.005-1.707,0.012-2.597,0.03c-0.229,0.572-0.469,1.155-0.646,1.76
			c-0.038,0.128-0.028,0.302,0.064,0.36c0.152,0.101,0.307,0.188,0.459,0.206c0.083,0.009,0.057,0.21-0.032,0.197
			c-0.819-0.115-1.649-0.116-2.468-0.003c-0.078,0.012-0.123-0.086-0.124-0.194c0.226-0.092,0.494-0.176,0.602-0.425
			c0.985-2.269,1.893-4.566,2.836-6.835c-0.017-0.229-0.193-0.4-0.393-0.397c-0.084,0.001-0.125-0.105-0.104-0.191
			C56.473,98.515,56.504,98.441,56.532,98.447z M56.71,102.891c-0.022,0.059-0.026,0.223,0.075,0.225l1.611,0.001
			c0.062-0.001,0.156-0.064,0.138-0.121c-0.295-0.886-0.55-1.806-0.713-2.701c-0.014-0.067-0.146-0.021-0.164,0.039
			C57.388,101.188,57.058,102.023,56.71,102.891L56.71,102.891z"/>
		<path d="M82.453,72.707c-2.42-2.486-5.313-4.461-8.51-5.812c-3.191-1.344-6.62-2.032-10.083-2.027
			c-3.462-0.006-6.891,0.684-10.081,2.025c-3.196,1.352-6.09,3.326-8.512,5.812l-0.632-0.615c2.504-2.567,5.497-4.609,8.802-6.006
			c3.299-1.39,6.844-2.104,10.423-2.1c3.693,0,7.216,0.748,10.425,2.101c3.306,1.396,6.298,3.438,8.801,6.008L82.453,72.707z
			 M74.93,80.152c-1.408-1.537-3.121-2.767-5.028-3.606c-1.904-0.837-3.964-1.267-6.042-1.264c-2.152,0-4.197,0.453-6.045,1.267
			c-1.909,0.842-3.622,2.07-5.031,3.61l-0.653-0.599c1.492-1.63,3.306-2.931,5.328-3.82c2.017-0.89,4.197-1.347,6.401-1.344
			c2.273,0,4.438,0.479,6.396,1.34c2.021,0.892,3.833,2.19,5.323,3.818L74.93,80.152L74.93,80.152z"/>
		<path d="M51.558,70.13l1.925,2.49c1.123,1.454,0.521,2.722-0.684,3.653c-1.273,0.983-2.652,1.103-3.702-0.256l-1.93-2.498
			l1.095-0.846l1.95,2.523c0.487,0.631,1.238,0.656,1.869,0.171c0.58-0.448,0.88-1.164,0.272-1.948l-1.89-2.445L51.558,70.13z
			 M62.265,72.319l-4,0.855l-1.163-5.424l3.945-0.844l0.213,0.994l-2.593,0.554l0.244,1.138l2.474-0.529l0.213,0.994l-2.474,0.529
			l0.279,1.305l2.649-0.565L62.265,72.319L62.265,72.319z M70.429,68.631l-2.395-0.466l-0.237,1.214l2.396,0.465L70,70.842
			l-2.396-0.465l-0.435,2.235l-1.357-0.265l1.059-5.444l3.754,0.729L70.429,68.631L70.429,68.631z M76.436,74.406l-1.404-0.975
			l1.896-1.308L76.436,74.406z M78.324,71.48l-1.316-0.913l-5,3.284l1.203,0.834l0.967-0.668l2.039,1.414l-0.251,1.162l1.224,0.851
			L78.324,71.48L78.324,71.48z"/>
	</g>
</g>
</svg>
